<svg width="258" height="36" viewBox="0 0 258 36" fill="none" xmlns="http://www.w3.org/2000/svg">
<mask id="path-1-inside-1_4545_17563" fill="white">
<path d="M0.0078125 0H111.008V36H0.0078125V0Z"/>
</mask>
<path d="M0.0078125 0V-2H-1.99219V0H0.0078125ZM0.0078125 36H-1.99219V38H0.0078125V36ZM0.0078125 2H111.008V-2H0.0078125V2ZM111.008 34H0.0078125V38H111.008V34ZM2.00781 36V0H-1.99219V36H2.00781Z" fill="white" mask="url(#path-1-inside-1_4545_17563)"/>
<path d="M18.6328 12.5469H22.1641V19.375C22.1641 20.0521 22.0573 20.6927 21.8438 21.2969C21.6354 21.8958 21.3047 22.4219 20.8516 22.875C20.4036 23.3229 19.9323 23.638 19.4375 23.8203C18.75 24.0755 17.9245 24.2031 16.9609 24.2031C16.4036 24.2031 15.7943 24.1641 15.1328 24.0859C14.4766 24.0078 13.9271 23.8542 13.4844 23.625C13.0417 23.3906 12.6354 23.0599 12.2656 22.6328C11.901 22.2057 11.651 21.7656 11.5156 21.3125C11.2969 20.5833 11.1875 19.9375 11.1875 19.375V12.5469H14.7188V19.5391C14.7188 20.1641 14.8906 20.6536 15.2344 21.0078C15.5833 21.3568 16.0651 21.5312 16.6797 21.5312C17.2891 21.5312 17.7656 21.3594 18.1094 21.0156C18.4583 20.6667 18.6328 20.1745 18.6328 19.5391V12.5469ZM24.5078 12.5469H28.0469V21.1797H33.5703V24H24.5078V12.5469ZM33.5625 12.5469H44.3203V15.375H40.7109V24H37.1719V15.375H33.5625V12.5469ZM46.0703 12.5469H49.6172V24H46.0703V12.5469ZM52.125 12.5469H56.7812L58.5781 19.5156L60.3672 12.5469H65.0078V24H62.1172V15.2656L59.875 24H57.2578L55.0234 15.2656V24H52.125V12.5469ZM74.3203 22.1094H70.2891L69.7344 24H66.1172L70.4219 12.5469H74.2812L78.5859 24H74.8828L74.3203 22.1094ZM73.5781 19.6328L72.3125 15.5156L71.0547 19.6328H73.5781ZM77.8125 12.5469H88.5703V15.375H84.9609V24H81.4219V15.375H77.8125V12.5469ZM90.1719 12.5469H99.6562V14.9922H93.7188V16.8125H99.2266V19.1484H93.7188V21.4062H99.8281V24H90.1719V12.5469Z" fill="white"/>
<path fill-rule="evenodd" clip-rule="evenodd" d="M191.008 0H111.008V36H191.008V0ZM133.219 22.9062C133.083 22.8281 132.794 22.6354 132.352 22.3281C133.185 21.3125 133.602 19.9583 133.602 18.2656C133.602 16.3646 133.083 14.9036 132.047 13.8828C131.016 12.862 129.549 12.3516 127.648 12.3516C125.784 12.3516 124.331 12.875 123.289 13.9219C122.253 14.9635 121.734 16.4271 121.734 18.3125C121.734 20.2552 122.328 21.763 123.516 22.8359C124.521 23.7422 125.893 24.1953 127.633 24.1953C128.81 24.1953 129.789 24.026 130.57 23.6875C130.763 23.8542 131.102 24.1016 131.586 24.4297C132.07 24.763 132.56 25.0495 133.055 25.2891L134.039 23.3047C133.695 23.1536 133.422 23.0208 133.219 22.9062ZM130.062 18.25C130.062 19.2552 129.922 20.0104 129.641 20.5156C129.5 20.4271 129.37 20.3411 129.25 20.2578C128.745 19.9036 128.404 19.6849 128.227 19.6016C128.055 19.5182 127.812 19.4479 127.5 19.3906L126.945 20.6641C127.586 20.9193 128.055 21.1901 128.352 21.4766C128.138 21.5234 127.911 21.5469 127.672 21.5469C126.927 21.5469 126.341 21.2943 125.914 20.7891C125.487 20.2839 125.273 19.4062 125.273 18.1562C125.273 17.0833 125.492 16.2943 125.93 15.7891C126.367 15.2839 126.938 15.0312 127.641 15.0312C128.396 15.0312 128.987 15.2786 129.414 15.7734C129.846 16.2682 130.062 17.0938 130.062 18.25ZM146.492 12.5469H142.961V19.5391C142.961 20.1745 142.786 20.6667 142.438 21.0156C142.094 21.3594 141.617 21.5312 141.008 21.5312C140.393 21.5312 139.911 21.3568 139.562 21.0078C139.219 20.6536 139.047 20.1641 139.047 19.5391V12.5469H135.516V19.375C135.516 19.9375 135.625 20.5833 135.844 21.3125C135.979 21.7656 136.229 22.2057 136.594 22.6328C136.964 23.0599 137.37 23.3906 137.812 23.625C138.255 23.8542 138.805 24.0078 139.461 24.0859C140.122 24.1641 140.732 24.2031 141.289 24.2031C142.253 24.2031 143.078 24.0755 143.766 23.8203C144.26 23.638 144.732 23.3229 145.18 22.875C145.633 22.4219 145.964 21.8958 146.172 21.2969C146.385 20.6927 146.492 20.0521 146.492 19.375V12.5469ZM152.523 12.5469H148.977V24H152.523V12.5469ZM165.797 20.2578L162.695 19.3203C162.539 20.0443 162.286 20.5964 161.938 20.9766C161.594 21.3568 161.083 21.5469 160.406 21.5469C159.708 21.5469 159.167 21.3125 158.781 20.8438C158.396 20.3698 158.203 19.4974 158.203 18.2266C158.203 17.2005 158.365 16.4479 158.688 15.9688C159.115 15.3229 159.729 15 160.531 15C160.885 15 161.206 15.0729 161.492 15.2188C161.779 15.3646 162.021 15.5729 162.219 15.8438C162.339 16.0052 162.453 16.2604 162.562 16.6094L165.688 15.9141C165.286 14.7057 164.672 13.8099 163.844 13.2266C163.021 12.6432 161.888 12.3516 160.445 12.3516C158.602 12.3516 157.174 12.862 156.164 13.8828C155.159 14.8984 154.656 16.3542 154.656 18.25C154.656 19.6719 154.943 20.8385 155.516 21.75C156.089 22.6615 156.768 23.2995 157.555 23.6641C158.346 24.0234 159.365 24.2031 160.609 24.2031C161.635 24.2031 162.479 24.0547 163.141 23.7578C163.807 23.4609 164.365 23.0208 164.812 22.4375C165.26 21.8542 165.589 21.1276 165.797 20.2578ZM171.078 12.5469H167.539V24H171.078V21.2031L172.906 19.2891L175.32 24H179.68L175.32 16.8672L179.492 12.5469H174.789L171.078 16.875V12.5469Z" fill="white"/>
<mask id="path-5-inside-2_4545_17563" fill="white">
<path d="M191.008 0H258.008V36H191.008V0Z"/>
</mask>
<path d="M258.008 0H260.008V-2H258.008V0ZM258.008 36V38H260.008V36H258.008ZM191.008 2H258.008V-2H191.008V2ZM256.008 0V36H260.008V0H256.008ZM258.008 34H191.008V38H258.008V34Z" fill="white" mask="url(#path-5-inside-2_4545_17563)"/>
<path d="M201.047 12.5469H204.75L207.328 20.7891L209.867 12.5469H213.461L209.211 24H205.375L201.047 12.5469ZM214.773 12.5469H218.32V24H214.773V12.5469ZM220.859 12.5469H230.344V14.9922H224.406V16.8125H229.914V19.1484H224.406V21.4062H230.516V24H220.859V12.5469ZM231.25 12.5469H234.609L235.82 18.9453L237.586 12.5469H240.938L242.711 18.9453L243.922 12.5469H247.266L244.742 24H241.273L239.266 16.7891L237.266 24H233.797L231.25 12.5469Z" fill="white"/>
</svg>
